<svg width="483" height="323" viewBox="0 0 483 323" fill="none" xmlns="http://www.w3.org/2000/svg">
<g clip-path="url(#clip0_146_9607)">
<path d="M126.282 28.3447H120.848V7.11467H113.602V2.26002H133.528V7.11467H126.282V28.3447ZM141.791 28.3447H136.357V2.26002H141.791V12.875H152.841V2.26002H158.275V28.3447H152.841V17.7297H141.791V28.3447ZM168.29 28.3447H162.856V2.26002H168.29V28.3447ZM181.418 28.9244C176.781 28.9244 173.231 27.1854 171.093 23.8524L174.933 20.2657C176.926 22.8742 178.774 24.0697 181.273 24.0697C183.52 24.0697 185.005 23.2727 185.621 21.8598V20.157C185.367 19.2875 184.462 18.563 182.252 17.9833L179.027 17.1138C174.933 15.9907 173.049 13.9257 172.361 10.9911V7.73056C173.086 4.32506 176.962 1.68036 181.708 1.68036C185.693 1.68036 188.664 3.05705 191.019 6.1365L187.215 9.57823C185.512 7.29582 184.027 6.53501 181.672 6.53501C179.86 6.53501 178.556 7.33204 177.868 8.60005V10.0492C178.303 11.0998 179.172 11.8244 180.947 12.2954L184.498 13.2736C188.048 14.2517 190.584 15.882 190.983 18.3818V23.2727C190.113 26.4971 186.599 28.9244 181.418 28.9244ZM216.947 18.1282L221.656 27.4752V28.381H216.222L211.657 19.2513H207.455V28.381H202.02V2.29625H213.179C218.033 2.29625 220.895 4.32506 221.294 7.44073V13.7808C220.968 15.6284 219.301 17.2225 216.947 18.1282ZM207.455 7.1509V14.3967H212.961C214.773 14.3967 215.679 13.817 216.077 12.4403V9.10725C215.679 7.73056 214.773 7.1509 212.961 7.1509H207.455ZM232.045 2.26002H238.819L247.877 27.439V28.3447H242.297L240.45 22.838H230.414L228.567 28.3447H222.987V27.439L232.045 2.26002ZM235.124 8.96234L232.081 17.9833H238.783L235.704 8.96234H235.124ZM255.747 28.3447H250.385V2.26002H256.109L262.993 13.5634H263.572L270.456 2.26002H276.18V28.3447H270.818V12.0418H270.238L265.275 20.4469H261.29L256.327 12.0418H255.747V28.3447ZM287.697 2.26002H294.472L303.529 27.439V28.3447H297.95L296.102 22.838H286.066L284.219 28.3447H278.64V27.439L287.697 2.26002ZM290.776 8.96234L287.733 17.9833H294.435L291.356 8.96234H290.776ZM315.565 28.3447H306.037V2.26002H315.565C321.942 2.26002 325.746 4.90472 327.014 10.1579V20.1933C325.746 25.5913 321.906 28.3447 315.565 28.3447ZM311.472 7.11467V23.4901H315.674C319.442 23.4901 321.072 22.2945 321.579 19.36V11.2085C321.072 8.31022 319.406 7.11467 315.674 7.11467H311.472ZM337.228 2.26002H344.003L353.06 27.439V28.3447H347.481L345.633 22.838H335.598L333.75 28.3447H328.171V27.439L337.228 2.26002ZM340.308 8.96234L337.265 17.9833H343.967L340.887 8.96234H340.308ZM360.858 28.3447H355.569V2.26002H361.221L371.944 18.418H372.524V2.26002H377.813V28.3447H372.162L361.438 12.2229H360.858V28.3447Z" fill="#EE7500"/>
<path d="M411.189 219.89V198.811H422.519C427.174 198.811 429.501 197.142 429.501 193.805C429.501 192.575 428.93 190.511 427.788 187.613L405.129 131.623V126.354H429.896L442.016 171.277H444.651L456.64 126.354H481.407V131.623L454.532 201.182C452.073 208.121 448.911 212.951 445.046 215.674C441.27 218.484 435.868 219.89 428.842 219.89H411.189Z" fill="#006CB7"/>
<path d="M401.63 126.354V147.432H388.719C385.294 147.432 382.747 148.047 381.078 149.276C379.409 150.506 378.268 152.482 377.653 155.205V197.494H352.622V126.354H373.701L377.521 135.312C380.156 129.34 384.855 126.354 391.617 126.354H401.63Z" fill="#006CB7"/>
<path d="M344.38 126.354V147.432H331.469C328.044 147.432 325.497 148.047 323.828 149.276C322.159 150.506 321.018 152.482 320.403 155.205V197.494H295.372V126.354H316.451L320.271 135.312C322.906 129.34 327.605 126.354 334.367 126.354H344.38Z" fill="#006CB7"/>
<path d="M287.129 126.354V147.432H274.218C270.793 147.432 268.246 148.047 266.577 149.276C264.908 150.506 263.767 152.482 263.152 155.205V197.494H238.121V126.354H259.2L263.02 135.312C265.655 129.34 270.354 126.354 277.116 126.354H287.129Z" fill="#006CB7"/>
<path d="M228.953 165.48L226.318 168.115H180.209C180.472 171.804 181.922 174.834 184.556 177.205C187.279 179.576 190.617 180.762 194.569 180.762C198.17 180.762 201.288 180.191 203.922 179.049C206.557 177.82 209.236 175.888 211.959 173.253L226.714 186.559C223.2 190.774 218.633 194.024 213.012 196.307C207.392 198.503 201.244 199.601 194.569 199.601C185.259 199.601 177.267 197.317 170.592 192.75C164.005 188.183 159.526 181.684 157.154 173.253V150.857C159.526 142.338 164.005 135.794 170.592 131.227C177.179 126.573 185.083 124.245 194.305 124.245C203.527 124.245 211.168 126.573 217.228 131.227C223.376 135.882 227.284 142.425 228.953 150.857V165.48ZM194.174 140.581C190.397 140.581 187.191 141.723 184.556 144.006C182.009 146.202 180.56 149.144 180.209 152.833H207.875C207.26 149.056 205.723 146.07 203.264 143.875C200.804 141.679 197.774 140.581 194.174 140.581Z" fill="#006CB7"/>
<path d="M130.403 197.494H101.684L77.8389 131.623V126.354H102.87L114.726 167.984H117.361L129.218 126.354H154.249V131.623L130.403 197.494Z" fill="#006CB7"/>
<path d="M73.0766 197.493H7.33789V102.64H73.0766V126.353H33.6861V138.21H61.2199V160.869H33.6861V173.78H73.0766V197.493Z" fill="#006CB7"/>
<path d="M40.8001 289.145C32.0174 289.145 24.4643 286.861 18.1407 282.294C11.8171 277.64 7.29402 271.053 4.57137 262.533V240.401C7.29402 231.882 11.8171 225.338 18.1407 220.771C24.4643 216.117 32.0174 213.789 40.8001 213.789C49.5829 213.789 57.136 216.117 63.4596 220.771C69.7831 225.338 74.3062 231.882 77.0289 240.401V262.533C74.3062 271.053 69.7831 277.64 63.4596 282.294C57.136 286.861 49.5829 289.145 40.8001 289.145ZM40.8001 268.593C43.7863 268.593 46.3772 267.847 48.5728 266.354C50.8564 264.861 52.4372 262.797 53.3155 260.162V242.772C52.4372 240.137 50.8564 238.073 48.5728 236.58C46.3772 235.087 43.7863 234.341 40.8001 234.341C37.814 234.341 35.1792 235.087 32.8957 236.58C30.7 238.073 29.163 240.137 28.2847 242.772V260.162C29.163 262.797 30.7 264.861 32.8957 266.354C35.1792 267.847 37.814 268.593 40.8001 268.593ZM86.824 287.037V215.897H107.903L111.855 225.119C113.524 221.694 116.114 218.971 119.628 216.951C123.228 214.843 127.181 213.789 131.484 213.789C139.564 213.789 145.8 216.117 150.191 220.771C154.671 225.338 156.91 231.794 156.91 240.137V287.037H131.879V243.563C131.44 240.928 130.342 238.908 128.586 237.503C126.917 236.097 124.765 235.395 122.131 235.395C119.496 235.395 117.3 236.097 115.544 237.503C113.787 238.908 112.557 240.928 111.855 243.563V287.037H86.824ZM237.959 255.024L235.324 257.659H189.215C189.478 261.348 190.927 264.378 193.562 266.749C196.285 269.12 199.622 270.306 203.574 270.306C207.175 270.306 210.293 269.735 212.928 268.593C215.563 267.364 218.241 265.432 220.964 262.797L235.719 276.103C232.206 280.318 227.639 283.568 222.018 285.851C216.397 288.047 210.249 289.145 203.574 289.145C194.265 289.145 186.272 286.861 179.597 282.294C173.01 277.727 168.531 271.228 166.16 262.797V240.401C168.531 231.882 173.01 225.338 179.597 220.771C186.184 216.117 194.089 213.789 203.311 213.789C212.533 213.789 220.174 216.117 226.234 220.771C232.382 225.426 236.29 231.969 237.959 240.401V255.024ZM203.179 230.125C199.403 230.125 196.197 231.267 193.562 233.55C191.015 235.746 189.566 238.688 189.215 242.377H216.88C216.265 238.6 214.728 235.614 212.269 233.419C209.81 231.223 206.78 230.125 203.179 230.125Z" fill="#006CB7"/>
<path d="M321.276 45.0521H313.998V37.7075C313.998 37.5367 313.964 37.3675 313.899 37.2097C313.833 37.0518 313.737 36.9084 313.617 36.7876C313.496 36.6668 313.352 36.571 313.194 36.5056C313.037 36.4402 312.867 36.4066 312.697 36.4066H293.644C293.474 36.4066 293.305 36.4403 293.148 36.5059C292.991 36.5715 292.849 36.6676 292.729 36.7886C292.61 36.9096 292.516 37.0532 292.452 37.2109C292.389 37.3687 292.357 37.5375 292.359 37.7075V45.0521H279.366V37.7075C279.367 37.5365 279.334 37.367 279.269 37.2087C279.204 37.0505 279.108 36.9066 278.987 36.7854C278.868 36.6616 278.725 36.564 278.566 36.4988C278.407 36.4335 278.237 36.4022 278.065 36.4066H258.749C258.454 36.4676 258.189 36.6289 258 36.8632C257.811 37.0974 257.709 37.39 257.711 37.6911V45.0356H244.735V37.6911C244.735 37.346 244.598 37.0151 244.354 36.7711C244.11 36.5272 243.779 36.3901 243.434 36.3901H224.381C224.245 36.365 224.105 36.365 223.969 36.3901C223.711 36.4787 223.487 36.6451 223.328 36.8663C223.169 37.0875 223.082 37.3526 223.08 37.6252V44.9697H210.103V37.6252C210.103 37.2801 209.966 36.9493 209.722 36.7053C209.478 36.4613 209.147 36.3242 208.802 36.3242H189.749C189.579 36.3242 189.409 36.3579 189.252 36.4233C189.094 36.4887 188.95 36.5845 188.83 36.7053C188.709 36.8261 188.613 36.9695 188.548 37.1273C188.482 37.2852 188.448 37.4543 188.448 37.6252V44.9697H175.456V37.6252C175.458 37.3113 175.347 37.0072 175.143 36.7689C175.022 36.6294 174.873 36.5174 174.705 36.4407C174.538 36.364 174.355 36.3243 174.171 36.3242H155.118C154.773 36.3242 154.442 36.4613 154.198 36.7053C153.954 36.9493 153.817 37.2801 153.817 37.6252V44.9697H140.824V37.6252C140.824 37.2801 140.687 36.9493 140.443 36.7053C140.199 36.4613 139.868 36.3242 139.523 36.3242H120.487C120.316 36.3242 120.147 36.3579 119.989 36.4233C119.831 36.4887 119.688 36.5845 119.567 36.7053C119.446 36.8261 119.35 36.9695 119.285 37.1273C119.219 37.2852 119.186 37.4543 119.186 37.6252V44.9697H112.599V115.682H321.276V45.0521Z" fill="#EE7500"/>
<path d="M162.125 78.24C164.178 78.8268 165.865 79.8537 167.186 81.3206C168.506 82.7386 169.362 84.499 169.753 86.6016V95.4032C168.97 99.0705 167.161 101.955 164.325 104.058C161.489 106.112 157.944 107.139 153.69 107.139H126.992V54.329H150.536C154.986 54.329 158.702 55.3803 161.685 57.4829C164.667 59.5366 166.403 62.2993 166.892 65.7711V71.1254C166.648 72.6412 166.11 74.0104 165.279 75.2328C164.447 76.4553 163.396 77.4577 162.125 78.24ZM141.661 66.1378V74.2793H148.629C149.998 74.2793 151.049 74.0837 151.783 73.6925C152.516 73.2525 152.981 72.5679 153.176 71.6388V68.705C152.883 67.7759 152.394 67.1158 151.71 66.7246C151.074 66.3334 150.047 66.1378 148.629 66.1378H141.661ZM155.817 87.4084C155.524 86.4793 155.035 85.8437 154.35 85.5014C153.665 85.1102 152.59 84.9146 151.123 84.9146H141.661V94.303H151.123C152.59 94.303 153.665 94.1318 154.35 93.7896C155.083 93.3984 155.572 92.7383 155.817 91.8092V87.4084ZM188.684 108.312C184.186 108.312 180.738 107.041 178.342 104.498C175.946 101.955 174.748 98.3371 174.748 93.6429V67.5314H188.684V91.7358C188.929 93.2028 189.516 94.3274 190.445 95.1098C191.374 95.8922 192.523 96.2833 193.892 96.2833C196.728 96.2833 198.562 94.7675 199.393 91.7358V67.5314H213.329V107.139H201.593L199.393 102.004C198.464 103.911 197.021 105.452 195.065 106.625C193.158 107.75 191.031 108.312 188.684 108.312ZM226.777 63.8641C224.479 63.8641 222.499 63.0573 220.836 61.4436C219.222 59.7811 218.416 57.8007 218.416 55.5025C218.416 53.2043 219.222 51.2484 220.836 49.6348C222.499 47.9723 224.479 47.141 226.777 47.141C229.075 47.141 231.031 47.9723 232.645 49.6348C234.307 51.2484 235.139 53.2043 235.139 55.5025C235.139 57.8007 234.307 59.7811 232.645 61.4436C231.031 63.0573 229.075 63.8641 226.777 63.8641ZM233.745 107.139H219.809V67.5314H233.745V107.139ZM255.626 107.139C250.638 107.139 246.775 105.892 244.037 103.398C241.299 100.904 239.93 97.3836 239.93 92.8361V49.9282H253.866V91.2224C253.866 92.5916 254.183 93.6429 254.819 94.3763C255.455 95.0609 256.482 95.4032 257.9 95.4032H262.227V107.139H255.626ZM280.462 108.312C276.403 108.312 273.005 107.09 270.267 104.645C267.577 102.151 265.841 98.7282 265.059 94.3763V87.4084V80.2938C265.792 75.9907 267.651 72.5923 270.633 70.0986C273.616 67.6048 277.283 66.3579 281.635 66.3579C283.885 66.3579 285.963 66.7735 287.87 67.6048C289.777 68.436 291.342 69.6096 292.564 71.1254V49.9282H306.5V107.139H294.691L292.711 102.444C291.439 104.351 289.752 105.818 287.65 106.845C285.596 107.823 283.2 108.312 280.462 108.312ZM285.596 96.8701C287.307 96.8701 288.725 96.5034 289.85 95.7699C291.024 94.9876 291.928 93.7896 292.564 92.1759V82.4942C291.39 79.3647 289.068 77.8 285.596 77.8C282.026 77.8 279.704 79.3647 278.628 82.4942V87.335V92.1759C279.362 93.8385 280.266 95.0365 281.342 95.7699C282.467 96.5034 283.885 96.8701 285.596 96.8701Z" fill="white"/>
<path d="M351.553 107.139H340.551L329.769 69.3651V67.5314H339.891L345.759 92.1026H346.932L354.78 67.5314H364.756L372.604 92.1026H373.777L379.645 67.5314H389.767V69.3651L378.985 107.139H367.983L360.355 83.0809H359.181L351.553 107.139ZM400.157 62.2504C396.416 62.2504 393.409 59.2432 393.409 55.5025C393.409 51.7619 396.416 48.7546 400.157 48.7546C403.898 48.7546 406.905 51.7619 406.905 55.5025C406.905 59.2432 403.898 62.2504 400.157 62.2504ZM405.291 107.139H395.023V67.5314H405.291V107.139ZM435.136 107.139H430.075C421.641 107.139 416.433 102.958 416.433 94.523V77.0665H410.419V67.5314H416.433V66.0645L421.274 57.2629H426.701V67.5314H435.796V77.0665H426.701V92.9094C426.701 95.9166 427.948 97.6036 430.956 97.6036H435.136V107.139ZM452.279 107.139H442.01V49.9282H452.206V72.6657C454.333 68.705 458.733 66.3579 463.941 66.3579C473.183 66.3579 478.83 72.0789 478.83 81.5406V107.139H468.562V83.0809C467.828 78.24 464.968 75.8929 460.714 75.8929C456.46 75.8929 453.086 78.4601 452.279 83.0809V107.139Z" fill="#EE7500"/>
<path d="M460.979 252.92L462.094 243.224C462.48 239.817 461.489 236.394 459.34 233.709C457.19 231.023 454.057 229.293 450.628 228.898L408.481 224.05L407.831 229.695L405.186 229.391L405.464 226.973C405.476 226.874 405.469 226.773 405.442 226.677C405.415 226.581 405.369 226.491 405.306 226.413C405.244 226.335 405.166 226.27 405.078 226.222C404.99 226.174 404.893 226.144 404.793 226.133L397.423 225.286C397.323 225.273 397.222 225.28 397.126 225.307C397.029 225.334 396.939 225.379 396.86 225.441C396.782 225.504 396.717 225.581 396.669 225.668C396.621 225.756 396.592 225.852 396.582 225.951L396.304 228.369L391.012 227.76L391.29 225.343C391.303 225.244 391.296 225.143 391.27 225.047C391.243 224.951 391.197 224.861 391.135 224.783C391.073 224.705 390.995 224.64 390.907 224.592C390.819 224.544 390.723 224.514 390.623 224.503L383.252 223.656C383.153 223.643 383.052 223.65 382.955 223.677C382.858 223.703 382.768 223.749 382.689 223.811C382.61 223.873 382.545 223.95 382.497 224.038C382.449 224.125 382.419 224.222 382.409 224.321L382.13 226.738L379.507 226.437L380.157 220.791L280.701 209.351C277.273 208.956 273.828 209.929 271.124 212.057C268.42 214.184 266.678 217.292 266.279 220.698L259.29 281.455C258.903 284.866 259.892 288.291 262.042 290.981C264.191 293.672 267.325 295.407 270.756 295.807L299.296 299.09L298.973 301.892L311.552 317.614L325.732 319.245L327.675 302.355L440.683 315.355C444.115 315.743 447.56 314.765 450.263 312.633C452.967 310.501 454.708 307.39 455.105 303.981L455.569 299.943L460.979 252.92Z" fill="#EE7500"/>
<path d="M302.621 270.477L294.644 269.559L297.122 248.019L289.702 247.166L290.528 239.986L313.344 242.611L312.518 249.791L305.099 248.937L302.621 270.477ZM324.812 273.676C322.419 273.401 320.267 272.668 318.356 271.478C316.445 270.289 314.935 268.781 313.824 266.956C312.741 265.134 312.187 263.157 312.162 261.026L313.071 253.128C313.579 251.058 314.567 249.258 316.036 247.73C317.532 246.204 319.345 245.079 321.476 244.354C323.608 243.63 325.87 243.405 328.263 243.68C330.656 243.956 332.808 244.688 334.719 245.878C336.63 247.068 338.127 248.574 339.211 250.396C340.321 252.221 340.889 254.199 340.913 256.331L340.004 264.229C339.497 266.299 338.495 268.097 336.999 269.622C335.53 271.15 333.73 272.277 331.599 273.002C329.468 273.727 327.206 273.951 324.812 273.676ZM325.638 266.496C327.101 266.665 328.377 266.461 329.467 265.886C330.584 265.314 331.443 264.402 332.045 263.151L332.917 255.572C332.615 254.217 331.985 253.135 331.027 252.324C330.096 251.516 328.9 251.028 327.437 250.86C325.975 250.692 324.685 250.894 323.568 251.466C322.478 252.041 321.632 252.954 321.03 254.205L320.158 261.784C320.461 263.139 321.077 264.22 322.008 265.028C322.966 265.839 324.176 266.328 325.638 266.496ZM364.856 277.636L354.804 276.48L351.383 248.603L351.566 247.008L359.624 247.934L360.955 265.871L361.753 265.963L367.362 248.825L376.536 249.88L378.107 267.844L378.905 267.936L384.275 250.77L392.332 251.697L392.148 253.293L382.487 279.664L372.435 278.508L371.132 259.969L370.334 259.877L364.856 277.636ZM399.553 281.627L391.575 280.71L394.879 251.99L402.857 252.908L399.553 281.627ZM411.191 282.966L403.612 282.094L406.916 253.375L414.494 254.247L422.344 269.982L423.141 270.074L424.825 255.435L432.404 256.307L429.1 285.026L421.522 284.155L413.677 268.379L412.879 268.287L411.191 282.966Z" fill="white"/>
</g>
<defs>
<clipPath id="clip0_146_9607">
<rect width="482" height="322" fill="white" transform="translate(0.5 0.344727)"/>
</clipPath>
</defs>
</svg>
